<?xml version="1.0" standalone="no"?>
<!DOCTYPE svg PUBLIC "-//W3C//DTD SVG 20010904//EN"
 "http://www.w3.org/TR/2001/REC-SVG-20010904/DTD/svg10.dtd">
<svg version="1.0" xmlns="http://www.w3.org/2000/svg"
 width="36.000000pt" height="36.000000pt" viewBox="0 0 36.000000 36.000000"
 preserveAspectRatio="xMidYMid meet">

<g transform="translate(0.000000,36.000000) scale(0.100000,-0.100000)"
fill="#000000" stroke="none">
<path d="M105 340 c-3 -6 1 -7 9 -4 14 5 16 -8 16 -95 l0 -102 33 6 c80 15
163 -37 137 -85 -6 -12 -9 -24 -6 -27 3 -3 10 6 16 21 27 71 -2 116 -74 116
l-44 0 -5 43 c-2 26 1 51 10 65 12 19 11 22 -2 22 -9 0 -15 9 -15 25 0 22 -4
25 -34 25 -19 0 -38 -4 -41 -10z"/>
<path d="M92 88 c-7 -7 -12 -23 -12 -37 0 -19 3 -22 12 -13 7 7 39 12 75 12
63 0 123 20 123 40 0 15 -183 13 -198 -2z"/>
</g>
</svg>
